<?xml version="1.0" standalone="no"?>
<!DOCTYPE svg PUBLIC "-//W3C//DTD SVG 20010904//EN"
 "http://www.w3.org/TR/2001/REC-SVG-20010904/DTD/svg10.dtd">
<svg version="1.0" xmlns="http://www.w3.org/2000/svg"
 width="308.000000pt" height="284.000000pt" viewBox="0 0 308.000000 284.000000"
 preserveAspectRatio="xMidYMid meet">
<g transform="translate(0.000000,284.000000) scale(0.100000,-0.100000)"
fill="#000000" stroke="none">
<path d="M1440 2560 c-825 -4 -1050 -8 -1067 -18 -30 -17 -63 -83 -63 -124 1
-46 31 -109 70 -141 l32 -27 1153 2 1154 3 31 30 c69 66 73 200 8 247 -31 22
-140 39 -228 35 -25 -1 -515 -4 -1090 -7z"/>
<path d="M503 1600 c-96 -5 -103 -7 -133 -35 -38 -36 -60 -76 -60 -107 0 -46
22 -101 55 -136 l33 -37 1160 0 c1146 0 1160 0 1182 20 26 24 55 78 64 122 13
57 -45 155 -99 169 -30 7 -2057 11 -2202 4z"/>
<path d="M378 608 c-20 -11 -42 -33 -48 -47 -37 -79 -30 -126 29 -192 l39 -44
1155 0 c1151 0 1156 0 1184 21 44 32 75 100 70 153 -6 51 -30 87 -77 112 -33
18 -84 19 -1175 19 l-1140 0 -37 -22z"/>
</g>
</svg>
