<?xml version="1.0" standalone="no"?>
<!DOCTYPE svg PUBLIC "-//W3C//DTD SVG 20010904//EN"
 "http://www.w3.org/TR/2001/REC-SVG-20010904/DTD/svg10.dtd">
<svg version="1.0" xmlns="http://www.w3.org/2000/svg"
 width="300.000000pt" height="256.000000pt" viewBox="0 0 300.000000 256.000000"
 preserveAspectRatio="xMidYMid meet">
<g transform="translate(0.000000,256.000000) scale(0.100000,-0.100000)"
fill="#000000" stroke="none">
<path d="M1170 2386 c-105 -28 -188 -110 -221 -218 -13 -40 -20 -86 -17 -113
2 -31 -1 -46 -10 -50 -8 -3 -76 -5 -152 -5 -158 0 -221 -11 -301 -51 -92 -46
-148 -124 -168 -234 -14 -76 -15 -1201 -1 -1274 17 -92 115 -205 210 -244 l55
-22 905 -3 c932 -3 1001 0 1084 37 59 26 142 116 169 181 22 55 22 56 22 695
l0 640 -26 55 c-33 70 -76 119 -140 161 -73 46 -140 59 -321 59 l-157 0 -5 43
c-3 23 -8 65 -12 92 -13 106 -107 220 -205 249 -43 13 -108 16 -358 15 -208 0
-321 -4 -351 -13z m630 -245 c19 -5 26 -16 32 -49 4 -24 3 -54 -2 -67 l-10
-25 -320 0 c-298 0 -320 1 -320 18 1 23 23 104 33 120 6 9 74 12 285 11 152
-1 288 -4 302 -8z m615 -400 l60 -6 12 -45 c14 -54 17 -157 4 -164 -5 -3 -145
-33 -312 -65 -167 -33 -332 -67 -366 -75 l-62 -15 -57 29 c-52 28 -63 30 -166
30 -109 0 -110 0 -136 -30 -19 -22 -35 -30 -59 -30 -17 0 -179 29 -360 65
-180 36 -349 68 -375 71 -65 9 -71 19 -60 101 13 90 26 121 54 127 13 3 32 7
43 9 33 7 1715 5 1780 -2z m-1558 -542 c164 -34 341 -70 393 -79 52 -9 96 -23
98 -29 12 -37 49 -62 106 -71 72 -12 235 3 247 22 5 7 9 9 10 3 1 -5 4 6 8 25
6 34 7 35 91 54 158 35 675 133 683 129 13 -7 7 -733 -6 -778 -11 -34 -17 -40
-52 -47 -51 -11 -1835 -6 -1857 5 -9 5 -22 23 -28 40 -20 60 -21 787 0 787 5
0 143 -28 307 -61z"/>
</g>
</svg>
