<svg width="25" height="25" viewBox="0 0 25 25" fill="none" xmlns="http://www.w3.org/2000/svg">
<path fill-rule="evenodd" clip-rule="evenodd" d="M16.6667 9.37498C16.6667 10.48 16.2277 11.5399 15.4463 12.3213C14.6649 13.1027 13.6051 13.5416 12.5 13.5416C11.3949 13.5416 10.3351 13.1027 9.55373 12.3213C8.77233 11.5399 8.33334 10.48 8.33334 9.37498C8.33334 8.26991 8.77233 7.2101 9.55373 6.4287C10.3351 5.6473 11.3949 5.20831 12.5 5.20831C13.6051 5.20831 14.6649 5.6473 15.4463 6.4287C16.2277 7.2101 16.6667 8.26991 16.6667 9.37498ZM14.5833 9.37498C14.5833 9.92751 14.3638 10.4574 13.9731 10.8481C13.5824 11.2388 13.0525 11.4583 12.5 11.4583C11.9475 11.4583 11.4176 11.2388 11.0269 10.8481C10.6362 10.4574 10.4167 9.92751 10.4167 9.37498C10.4167 8.82245 10.6362 8.29254 11.0269 7.90184C11.4176 7.51114 11.9475 7.29165 12.5 7.29165C13.0525 7.29165 13.5824 7.51114 13.9731 7.90184C14.3638 8.29254 14.5833 8.82245 14.5833 9.37498Z" fill="#801C6F"/>
<path fill-rule="evenodd" clip-rule="evenodd" d="M12.5 1.04166C6.17188 1.04166 1.04167 6.17186 1.04167 12.5C1.04167 18.8281 6.17188 23.9583 12.5 23.9583C18.8281 23.9583 23.9583 18.8281 23.9583 12.5C23.9583 6.17186 18.8281 1.04166 12.5 1.04166ZM3.12501 12.5C3.12501 14.6771 3.86771 16.6812 5.1125 18.2729C5.9867 17.1249 7.11448 16.1945 8.40775 15.5545C9.70101 14.9144 11.1247 14.5821 12.5677 14.5833C13.992 14.582 15.3978 14.9057 16.6781 15.53C17.9583 16.1542 19.0791 17.0624 19.9552 18.1854C20.8578 17.0017 21.4655 15.62 21.728 14.1548C21.9906 12.6895 21.9005 11.1828 21.4651 9.75935C21.0298 8.33586 20.2617 7.0365 19.2245 5.96878C18.1872 4.90106 16.9107 4.09568 15.5004 3.61927C14.0901 3.14286 12.5867 3.00913 11.1144 3.22913C9.64221 3.44913 8.24354 4.01654 7.03414 4.88442C5.82474 5.7523 4.83939 6.89569 4.15962 8.21999C3.47985 9.54428 3.12519 11.0114 3.12501 12.5ZM12.5 21.875C10.3479 21.8782 8.2607 21.1378 6.59167 19.7792C7.26347 18.8174 8.15765 18.0322 9.19812 17.4903C10.2386 16.9484 11.3946 16.6658 12.5677 16.6667C13.7262 16.6657 14.8682 16.9412 15.8989 17.4702C16.9296 17.9992 17.8191 18.7665 18.4938 19.7083C16.8118 21.1111 14.6902 21.8781 12.5 21.875Z" fill="#801C6F"/>
</svg>
