<svg width="23" height="23" viewBox="0 0 23 23" fill="none" xmlns="http://www.w3.org/2000/svg">
<path d="M15.6818 8.57577C15.6818 9.66878 15.2412 10.717 14.457 11.4899C14.4498 11.497 14.4426 11.5041 14.4353 11.5111C14.4208 11.5252 14.4062 11.5392 14.3915 11.553C14.3842 11.5599 14.3768 11.5669 14.3694 11.5737C13.5945 12.2941 12.5683 12.697 11.5 12.697C10.4317 12.697 9.40548 12.2941 8.63058 11.5737C8.62318 11.5669 8.6158 11.5599 8.60845 11.553C8.59376 11.5392 8.57916 11.5252 8.56466 11.5111C8.55742 11.5041 8.5502 11.497 8.543 11.4899C7.75876 10.717 7.31818 9.66878 7.31818 8.57577C7.31818 7.48276 7.75876 6.43451 8.543 5.66163C8.5502 5.65454 8.55742 5.64748 8.56466 5.64044C8.57917 5.62636 8.59376 5.61239 8.60845 5.59853C8.6158 5.59159 8.62318 5.58469 8.63058 5.57781C9.40548 4.85743 10.4317 4.45456 11.5 4.45456C12.5683 4.45456 13.5945 4.85743 14.3694 5.57781C14.3768 5.58469 14.3842 5.59159 14.3915 5.59853C14.4062 5.61238 14.4208 5.62635 14.4353 5.64044C14.4426 5.64748 14.4498 5.65454 14.457 5.66163C15.2412 6.43451 15.6818 7.48276 15.6818 8.57577ZM13.5909 8.57577C13.5909 9.11224 13.3786 9.62714 12.9999 10.0114C12.9928 10.0186 12.9857 10.0257 12.9785 10.0328C12.9641 10.047 12.9495 10.061 12.9347 10.0748C12.9273 10.0816 12.9198 10.0885 12.9123 10.0952C12.5276 10.4426 12.0239 10.6364 11.5 10.6364C10.976 10.6364 10.4724 10.4426 10.0876 10.0952C10.0801 10.0885 10.0727 10.0816 10.0653 10.0747C10.0505 10.061 10.0359 10.047 10.0215 10.0328C10.0143 10.0257 10.0072 10.0186 10.0001 10.0114C9.62136 9.62714 9.40909 9.11224 9.40909 8.57577C9.40909 8.0393 9.62136 7.5244 10.0001 7.14013C10.0072 7.13294 10.0143 7.1258 10.0215 7.1187C10.0359 7.1045 10.0505 7.09053 10.0653 7.07679C10.0727 7.0699 10.0801 7.06307 10.0876 7.0563C10.4724 6.70897 10.976 6.51516 11.5 6.51516C12.024 6.51516 12.5276 6.70897 12.9123 7.05631C12.9198 7.06308 12.9273 7.0699 12.9347 7.07679C12.9495 7.09053 12.9641 7.1045 12.9785 7.1187C12.9857 7.1258 12.9928 7.13294 12.9999 7.14013C13.3786 7.5244 13.5909 8.0393 13.5909 8.57577Z" fill="#801C6F" stroke="#801C6F" stroke-width="533"/>
<mask id="path-2-inside-1_1_5" fill="white">
<path fill-rule="evenodd" clip-rule="evenodd" d="M11.5 0.333344C5.14886 0.333344 0 5.40758 0 11.6667C0 17.9258 5.14886 23 11.5 23C17.8511 23 23 17.9258 23 11.6667C23 5.40758 17.8511 0.333344 11.5 0.333344ZM2.09091 11.6667C2.09091 13.82 2.83632 15.8023 4.08564 17.3766C4.96301 16.2411 6.0949 15.3209 7.39286 14.6878C8.69083 14.0548 10.1197 13.726 11.568 13.7273C12.9974 13.7259 14.4084 14.0462 15.6932 14.6636C16.9781 15.281 18.1031 16.1793 18.9823 17.2901C19.8881 16.1192 20.4981 14.7527 20.7616 13.3034C21.0251 11.8541 20.9346 10.3639 20.4977 8.95593C20.0608 7.54797 19.2899 6.26278 18.2489 5.20671C17.2079 4.15064 15.9267 3.35405 14.5113 2.88284C13.0959 2.41163 11.587 2.27935 10.1094 2.49695C8.63182 2.71455 7.22805 3.27578 6.01426 4.13418C4.80046 4.99259 3.81153 6.12351 3.12928 7.43336C2.44704 8.74321 2.0911 10.1943 2.09091 11.6667ZM11.5 20.9394C9.34004 20.9426 7.24528 20.2103 5.57018 18.8664C6.24443 17.9152 7.14185 17.1385 8.18611 16.6025C9.23037 16.0665 10.3906 15.7871 11.568 15.7879C12.7307 15.787 13.8768 16.0594 14.9112 16.5827C15.9457 17.1059 16.8385 17.8648 17.5155 18.7964C15.8274 20.1839 13.6982 20.9424 11.5 20.9394Z"/>
</mask>
<path fill-rule="evenodd" clip-rule="evenodd" d="M11.5 0.333344C5.14886 0.333344 0 5.40758 0 11.6667C0 17.9258 5.14886 23 11.5 23C17.8511 23 23 17.9258 23 11.6667C23 5.40758 17.8511 0.333344 11.5 0.333344ZM2.09091 11.6667C2.09091 13.82 2.83632 15.8023 4.08564 17.3766C4.96301 16.2411 6.0949 15.3209 7.39286 14.6878C8.69083 14.0548 10.1197 13.726 11.568 13.7273C12.9974 13.7259 14.4084 14.0462 15.6932 14.6636C16.9781 15.281 18.1031 16.1793 18.9823 17.2901C19.8881 16.1192 20.4981 14.7527 20.7616 13.3034C21.0251 11.8541 20.9346 10.3639 20.4977 8.95593C20.0608 7.54797 19.2899 6.26278 18.2489 5.20671C17.2079 4.15064 15.9267 3.35405 14.5113 2.88284C13.0959 2.41163 11.587 2.27935 10.1094 2.49695C8.63182 2.71455 7.22805 3.27578 6.01426 4.13418C4.80046 4.99259 3.81153 6.12351 3.12928 7.43336C2.44704 8.74321 2.0911 10.1943 2.09091 11.6667ZM11.5 20.9394C9.34004 20.9426 7.24528 20.2103 5.57018 18.8664C6.24443 17.9152 7.14185 17.1385 8.18611 16.6025C9.23037 16.0665 10.3906 15.7871 11.568 15.7879C12.7307 15.787 13.8768 16.0594 14.9112 16.5827C15.9457 17.1059 16.8385 17.8648 17.5155 18.7964C15.8274 20.1839 13.6982 20.9424 11.5 20.9394Z" fill="#801C6F"/>
<path d="M2.09091 11.6667L-530.909 11.5983L-530.909 11.6325V11.6667H2.09091ZM4.08564 17.3766L-413.424 348.699L9.68221 881.868L425.85 343.266L4.08564 17.3766ZM11.568 13.7273L11.1122 546.727L11.5893 546.727L12.0664 546.727L11.568 13.7273ZM18.9823 17.2901L-398.928 348.107L23.7915 882.115L440.546 343.439L18.9823 17.2901ZM11.5 20.9394L12.2369 -512.06L11.4741 -512.061L10.7114 -512.06L11.5 20.9394ZM5.57018 18.8664L-429.274 -289.353L-719.677 120.354L-327.966 434.61L5.57018 18.8664ZM11.568 15.7879L11.1939 548.788L11.5912 548.788L11.9886 548.788L11.568 15.7879ZM17.5155 18.7964L355.957 430.557L743.931 111.666L448.663 -294.574L17.5155 18.7964ZM11.5 -532.667C-281.856 -532.667 -533 -296.269 -533 11.6667H533C533 307.085 292.154 533.333 11.5 533.333V-532.667ZM-533 11.6667C-533 319.603 -281.856 556 11.5 556V-510C292.154 -510 533 -283.751 533 11.6667H-533ZM11.5 556C304.856 556 556 319.603 556 11.6667H-510C-510 -283.751 -269.154 -510 11.5 -510V556ZM556 11.6667C556 -296.269 304.856 -532.667 11.5 -532.667V533.333C-269.154 533.333 -510 307.085 -510 11.6667H556ZM-530.909 11.6667C-530.909 139.2 -486.247 256.933 -413.424 348.699L421.595 -313.946C491.92 -225.328 535.091 -111.56 535.091 11.6667H-530.909ZM425.85 343.266C376.298 407.395 312.901 458.699 241.043 493.746L-226.257 -464.37C-300.712 -428.057 -366.372 -374.913 -417.679 -308.513L425.85 343.266ZM241.043 493.746C169.212 528.78 90.5477 546.795 11.1122 546.727L12.0238 -519.273C-70.3082 -519.343 -151.831 -500.67 -226.257 -464.37L241.043 493.746ZM12.0664 546.727C-66.3612 546.8 -144.048 529.247 -215.157 495.077L246.544 -465.75C172.865 -501.154 92.3561 -519.349 11.0695 -519.272L12.0664 546.727ZM-215.157 495.077C-286.293 460.895 -349.285 410.819 -398.928 348.107L436.893 -313.527C385.491 -378.461 320.249 -430.333 246.544 -465.75L-215.157 495.077ZM440.546 343.439C493.463 275.04 529.536 194.602 545.163 108.655L-503.64 -82.0477C-488.54 -165.096 -453.687 -242.802 -402.581 -308.859L440.546 343.439ZM545.163 108.655C560.794 22.6877 555.403 -65.7057 529.549 -149.018L-488.553 166.93C-513.534 86.4335 -518.744 1.02055 -503.64 -82.0477L545.163 108.655ZM529.549 -149.018C503.704 -232.302 458.325 -307.598 397.837 -368.962L-361.339 379.375C-419.745 320.123 -463.582 247.398 -488.553 166.93L529.549 -149.018ZM397.837 -368.962C337.383 -430.291 263.589 -475.956 182.87 -502.829L-153.847 508.595C-231.736 482.664 -302.967 438.592 -361.339 379.375L397.837 -368.962ZM182.87 -502.829C102.176 -529.693 16.3957 -537.178 -67.5472 -524.816L87.766 529.809C6.77824 541.736 -75.9839 534.516 -153.847 508.595L182.87 -502.829ZM-67.5472 -524.816C-151.502 -512.452 -231.808 -480.496 -301.743 -431.037L313.772 439.306C246.264 487.048 168.766 517.881 87.766 529.809L-67.5472 -524.816ZM-301.743 -431.037C-371.715 -381.553 -429.466 -315.824 -469.591 -238.787L475.85 253.653C437.089 328.071 381.316 391.538 313.772 439.306L-301.743 -431.037ZM-469.591 -238.787C-509.737 -161.711 -530.898 -75.8531 -530.909 11.5983L535.091 11.735C535.08 96.2418 514.631 179.197 475.85 253.653L-469.591 -238.787ZM10.7114 -512.06C129.336 -512.236 245.374 -472.075 339.106 -396.877L-327.966 434.61C-230.883 512.496 -110.656 554.121 12.2886 553.939L10.7114 -512.06ZM440.415 327.086C391.193 396.528 326.229 452.468 251.576 490.787L-235.204 -457.581C-311.946 -418.191 -378.705 -360.698 -429.274 -289.353L440.415 327.086ZM251.576 490.787C176.957 529.087 94.5195 548.846 11.1939 548.788L11.942 -517.212C-73.7384 -517.272 -158.496 -496.954 -235.204 -457.581L251.576 490.787ZM11.9886 548.788C-70.3122 548.853 -151.759 529.584 -225.67 492.198L255.493 -459.032C179.512 -497.466 95.7735 -517.279 11.1473 -517.212L11.9886 548.788ZM-225.67 492.198C-299.614 454.794 -364.223 400.146 -413.632 332.167L448.663 -294.574C397.9 -364.416 331.506 -420.582 255.493 -459.032L-225.67 492.198ZM-320.926 -392.964C-226.428 -470.635 -108.462 -512.227 12.2369 -512.06L10.7631 553.939C135.858 554.112 258.083 511.003 355.957 430.557L-320.926 -392.964Z" fill="#801C6F" mask="url(#path-2-inside-1_1_5)"/>
</svg>
