<?xml version="1.0" standalone="no"?>
<!DOCTYPE svg PUBLIC "-//W3C//DTD SVG 20010904//EN"
 "http://www.w3.org/TR/2001/REC-SVG-20010904/DTD/svg10.dtd">
<svg version="1.0" xmlns="http://www.w3.org/2000/svg"
 width="476.000000pt" height="304.000000pt" viewBox="0 0 476.000000 304.000000"
 preserveAspectRatio="xMidYMid meet">
<g transform="translate(0.000000,304.000000) scale(0.100000,-0.100000)"
fill="#000000" stroke="none">
<path d="M2185 2838 c-41 -21 -77 -55 -534 -503 -152 -148 -329 -322 -394
-385 -98 -95 -125 -128 -155 -189 l-37 -75 -3 -591 -3 -590 28 -55 c62 -121
120 -134 590 -128 301 3 320 5 358 25 103 55 134 134 144 368 l6 150 58 3 57
3 0 -123 c1 -148 20 -264 53 -321 56 -95 144 -111 587 -105 351 5 357 7 434
107 l46 61 0 543 c-1 574 -6 651 -48 733 -38 73 -86 131 -283 341 -107 114
-269 289 -360 388 -226 245 -303 321 -349 345 -53 27 -141 26 -195 -2z m231
-390 c118 -121 361 -380 603 -643 50 -55 103 -123 116 -150 l25 -51 -2 -509
-3 -510 -287 -3 c-159 -1 -288 1 -289 5 0 5 -4 82 -9 173 -5 91 -13 182 -20
202 -16 56 -70 120 -120 146 -40 20 -59 22 -193 22 -170 0 -196 -7 -252 -73
-62 -72 -77 -130 -78 -312 l-2 -160 -291 -3 -291 -2 -6 344 c-7 368 -1 661 14
713 7 22 144 163 474 487 256 251 468 456 473 456 4 0 66 -60 138 -132z"/>
</g>
</svg>
