<?xml version="1.0" standalone="no"?>
<!DOCTYPE svg PUBLIC "-//W3C//DTD SVG 20010904//EN"
 "http://www.w3.org/TR/2001/REC-SVG-20010904/DTD/svg10.dtd">
<svg version="1.0" xmlns="http://www.w3.org/2000/svg"
 width="332.000000pt" height="276.000000pt" viewBox="0 0 332.000000 276.000000"
 preserveAspectRatio="xMidYMid meet">
<g transform="translate(0.000000,276.000000) scale(0.100000,-0.100000)"
fill="#000000" stroke="none">
<path d="M1970 2636 c-36 -13 -105 -41 -155 -64 -179 -80 -743 -325 -885 -384
-214 -88 -288 -129 -359 -201 -87 -87 -119 -157 -132 -285 -6 -60 -9 -304 -6
-599 3 -414 6 -507 19 -549 54 -179 216 -323 395 -353 48 -9 284 -11 818 -8
818 4 810 3 911 62 106 62 211 193 237 296 11 42 14 169 15 594 1 297 -3 566
-8 597 -22 143 -137 290 -285 364 l-80 41 0 124 c0 142 -13 184 -81 259 -49
54 -96 84 -173 110 -79 26 -150 25 -231 -4z m191 -253 c20 -17 35 -73 44 -165
l7 -68 -363 0 c-228 0 -359 4 -353 9 5 6 52 26 104 46 52 20 170 70 262 111
219 97 256 105 299 67z m259 -504 c51 -23 97 -65 128 -118 l27 -46 3 -475 c2
-261 -1 -514 -6 -562 -8 -75 -14 -93 -42 -128 -17 -22 -52 -52 -77 -67 -41
-24 -58 -26 -201 -34 -207 -11 -1101 -10 -1269 0 -124 8 -134 11 -176 40 -59
40 -94 83 -107 132 -7 26 -10 217 -8 572 3 594 -1 560 76 629 46 42 88 57 186
68 39 5 377 7 751 6 593 -1 684 -4 715 -17z"/>
<path d="M2211 1287 c-63 -32 -87 -131 -47 -192 22 -33 74 -65 106 -65 45 1
108 36 126 72 22 43 22 109 0 143 -32 49 -129 71 -185 42z"/>
</g>
</svg>
